/* XPM */
static char *_9626012b25a45d2a96bae048fe5bb3eT4VcdTqcPzagEEax[] = {
/* columns rows colors chars-per-pixel */
"30 30 140 2 ",
"   c #000C13",
".  c #000E18",
"X  c #001119",
"o  c #000A2D",
"O  c #0D2B33",
"+  c #0D223F",
"@  c #0D293E",
"#  c #11243A",
"$  c #152F3C",
"%  c #1A2D3E",
"&  c #143139",
"*  c #152245",
"=  c #152C46",
"-  c #1A2D43",
";  c #1E274C",
":  c #172A48",
">  c #192E49",
",  c #163144",
"<  c #182752",
"1  c #202C42",
"2  c #20294A",
"3  c #202C52",
"4  c #262F58",
"5  c #313F6E",
"6  c #14436F",
"7  c #314868",
"8  c #2C4673",
"9  c #254E71",
"0  c #214C79",
"q  c #3C4F70",
"w  c #3E5975",
"e  c #39527B",
"r  c #3C5A7E",
"t  c #3E647B",
"y  c #424C75",
"u  c #435E79",
"i  c #52567B",
"p  c #44647C",
"a  c #4B607D",
"s  c #2B4C81",
"d  c #3D5186",
"f  c #3D548A",
"g  c #3D5C8B",
"h  c #3C6382",
"j  c #455282",
"k  c #445B85",
"l  c #41568B",
"z  c #49568A",
"x  c #405C8C",
"c  c #495D8D",
"v  c #565A87",
"b  c #405E92",
"n  c #486381",
"m  c #4E6984",
"M  c #45628C",
"N  c #4F698A",
"B  c #536687",
"V  c #486199",
"C  c #576893",
"Z  c #5F7D9F",
"A  c #696890",
"S  c #737898",
"D  c #5075A2",
"F  c #5E74AD",
"G  c #587DAA",
"H  c #817A99",
"J  c #54869D",
"K  c #5D819B",
"L  c #7E839B",
"P  c #74899C",
"I  c #7A899E",
"U  c #4C8AA3",
"Y  c #5487A6",
"T  c #5D81A3",
"R  c #5881AF",
"E  c #6184A4",
"W  c #7E84A4",
"Q  c #7A8AA3",
"!  c #6391A9",
"~  c #6D9EAD",
"^  c #719EA4",
"/  c #7C9BAF",
"(  c #6081B7",
")  c #678EB5",
"_  c #6485BA",
"`  c #729CB4",
"'  c #799BB4",
"]  c #749BBC",
"[  c #67A0B4",
"{  c #6DA7B2",
"}  c #65ABB3",
"|  c #6FA5BF",
" . c #75A3B3",
".. c #7EA1BF",
"X. c #72ACBD",
"o. c #75B5BE",
"O. c #7AB1B8",
"+. c #7D9FC2",
"@. c #5DA4C2",
"#. c #66AEC6",
"$. c #6DACCB",
"%. c #70A7C6",
"&. c #7AA4C6",
"*. c #78ACC4",
"=. c #75A2C9",
"-. c #7AA5CF",
";. c #69B1C7",
":. c #6BB1CB",
">. c #73A3D1",
",. c #79A1D4",
"<. c #72ACD4",
"1. c #83839D",
"2. c #8382A2",
"3. c #8589A4",
"4. c #8A8CA5",
"5. c #848BAE",
"6. c #8790AD",
"7. c #8C93AF",
"8. c #82AEB7",
"9. c #85ACBB",
"0. c #8BA9BC",
"q. c #80AFC9",
"w. c #8AB0C5",
"e. c #83ADD5",
"r. c #CFFFFF",
"t. c #F4EFF6",
"y. c #EEF5FF",
"u. c #EDFBFF",
"i. c #F7F5F4",
"p. c #F9F6F4",
"a. c #F4F9F6",
"s. c #FEFCF6",
"d. c #F3F4FD",
"f. c #FBF6FD",
"g. c #F5FDFF",
"h. c #FEFFFF",
"j. c white",
"k. c #FFFEFF",
"l. c #FEFEFE",
"z. c #FEFEFD",
/* pixels */
"k.k.k.k.k.k.k.k.z.z.z.z.k.k.k.k.k.k.k.k.k.k.k.k.k.k.k.k.k.k.",
"k.k.k.k.k.k.k.k.z.z.z.z.k.k.k.k.k.k.k.k.k.k.k.k.k.k.k.k.k.k.",
"k.k.k.k.k.k.k.k.z.z.z.z.k.k.k.k.h.h.k.k.k.k.k.k.k.k.k.k.k.k.",
"k.k.k.k.k.k.k.z.z.z.z.z.k.k.k.k.h.h.h.k.h.k.k.k.k.k.k.k.k.k.",
"k.k.h.h.k.k.k.z.z.z.z.z.k.k.k.k.h.z.z.z.z.k.k.h.k.k.k.k.k.k.",
"h.h.h.k.h.k.z.z.z.k.k.k.k.k.k.k.k.z.z.z.z.z.h.h.k.k.k.k.k.k.",
"h.h.k.k.k.z.k.k.k.k.k.k.k.k.k.k.k.k.k.k.k.h.z.z.k.k.k.k.k.k.",
"k.k.k.k.z.z.k.k.k.k.k.k.k.k.k.k.k.k.k.k.k.k.k.k.k.k.k.k.k.k.",
"k.z.z.k.z.z.z.k.k.k.k.k.d.k.h.k.k.k.k.k.f.k.k.k.k.k.k.k.k.k.",
"f.k.k.z.p.s.k.k.k.k.k.k.h.h.g.g.d.f.k.k.k.t.k.k.k.k.k.k.k.k.",
"k.k.i.z.z.z.p.f.k.k.y.h.u.u.g.u.h.k.h.k.f.k.k.f.k.k.k.k.k.k.",
"k.k.f.z.s.z.k.k.h.h.g.# - $ O & # > 1 y.h.h.d.k.k.k.k.k.k.k.",
"k.f.k.z.i.k.h.y.g.g.: p 0.9.^ 8.w.K w = g.g.h.k.k.k.k.k.z.z.",
"k.k.k.s.z.k.g.g.u.+ N ..` ~ O.{ [ | ! t @ g.g.h.k.k.k.k.z.z.",
"f.k.k.i.z.a.g.u.- n +.&.*.X.o.} ;.:.U J p , u.g.k.k.k.k.z.z.",
"k.d.k.k.a.h.g.% u E &.o | X.X r.#.@.$.Y h u - h.k.k.k.z.z.z.",
"g.h.k.a.k.g.u.> r ) =.o q. .  . %.<.>.R g c * g.k.k.z.z.z.z.",
"h.g.h.k.k.d.g.= M D 0 -.] ' 0./ 9 6 ,._ f z 4 f.k.k.z.z.z.z.",
"g.z.z.k.k.k.h.* c b ( s 8 8 q 7 9 e.G x c j ; h.k.k.z.s.z.z.",
"h.z.z.z.f.k.d.2 k l V F d 5 y y Z T k e C 3 S k.k.k.z.s.z.z.",
"k.z.z.s.k.k.d.3.; < j z j v A i a m w B * W 4.k.k.k.s.s.z.z.",
"k.i.k.z.k.k.k.f.L 6.5.5.5.2.H 1.I P Q Q 7.L f.k.k.z.s.s.z.z.",
"k.k.k.z.s.p.i.k.h.g.h.g.f.k.k.k.g.g.g.y.d.k.k.k.k.z.s.z.z.z.",
"k.k.s.z.z.z.z.s.k.z.h.k.k.z.s.z.h.g.f.k.k.k.d.k.k.z.z.z.z.z.",
"k.k.k.k.z.z.s.s.s.s.z.z.z.z.s.z.k.k.k.k.k.k.k.k.k.z.z.z.z.k.",
"k.k.k.k.z.z.z.z.s.z.z.z.z.z.z.z.k.k.k.k.k.k.k.k.k.z.z.k.k.k.",
"h.h.h.h.h.h.k.k.k.k.k.k.k.k.k.k.k.k.k.k.k.k.k.k.k.k.k.k.k.k.",
"z.z.k.h.k.k.k.k.k.k.k.k.k.k.k.k.k.z.z.z.z.z.k.k.k.k.k.k.k.k.",
"z.z.z.k.h.h.k.k.k.k.k.k.k.k.k.k.k.k.k.k.z.z.k.k.k.k.k.k.k.k.",
"z.z.z.k.k.h.k.k.k.k.k.k.k.k.k.k.k.k.k.k.z.z.k.k.k.k.k.k.k.k."
};
