/* XPM */
static char *_2842f2e283f47b0acb49d9af87101f7vzQelu8pCGPI39Lh[] = {
/* columns rows colors chars-per-pixel */
"30 30 10 1 ",
"  c black",
". c None",
"X c #1D235D",
"o c #425B9E",
"O c #4D8AB3",
"+ c #65B1B8",
"@ c white",
"# c black",
"$ c #33418A",
"% c #9E2E46",
/* pixels */
"                              ",
"                              ",
"                              ",
"                              ",
"                              ",
"                              ",
"                              ",
"                              ",
"                              ",
"                              ",
"                              ",
"           XXXXXXXX           ",
"          XoO+++++oX          ",
"         XoO+++++++oX         ",
"        XoOO++++++++oX        ",
"       XooO+++@#++#+OoX       ",
"       XooO+++##++#+OoX       ",
"       XooO+$$+++++$OoX       ",
"       XoooO+$$$$$$OooX       ",
"       .XoooOO%%$$OoooX       ",
"       ..XooooooooooXX.       ",
"        ..............        ",
"                              ",
"                              ",
"                              ",
"                              ",
"                              ",
"                              ",
"                              ",
"                              "
};
