/* XPM */
static char *_0be586ae6354458fb0449a7ae3def613t6KdTw5w6scST6c[] = {
/* columns rows colors chars-per-pixel */
"30 30 7 1 ",
"  c black",
". c None",
"X c #1D235D",
"o c #65B1B8",
"O c #4D8AB3",
"+ c #425B9E",
"@ c white",
/* pixels */
"                              ",
"                              ",
"                              ",
"                              ",
"                              ",
"                              ",
"                              ",
"                              ",
"                              ",
"                              ",
"           XXXXXX             ",
"         XXooooooXX           ",
"        XOooooooooOX          ",
"       X+oooooooooo+X         ",
"      X+OooooooooooO+X        ",
"      X+OooooooooooO+X        ",
"      X+OooooooooooO+X        ",
"      X++OooooooooO++X        ",
"      X+++OOOOOOOO+++X        ",
"      .X++++++++++++X.        ",
"       ..............         ",
"                              ",
"                              ",
"                              ",
"                              ",
"                              ",
"                              ",
"                              ",
"                              ",
"                              "
};
