/* XPM */
static char *_0214b9e46f247b3ff1f69259b6cd5a4VilOZkKJ6Euayw38[] = {
/* columns rows colors chars-per-pixel */
"31 30 10 1 ",
"  c black",
". c None",
"X c #1D235D",
"o c #65B1B8",
"O c #4D8AB3",
"+ c #425B9E",
"@ c white",
"# c black",
"$ c #33418A",
"% c #9E2E46",
/* pixels */
"                               ",
"                               ",
"                               ",
"                               ",
"                               ",
"                               ",
"                               ",
"                               ",
"                               ",
"                               ",
"                               ",
"                               ",
"                               ",
"            XXXXXX             ",
"          XXooooooXX           ",
"         XOooooooooOX          ",
"        X+oooooooooo+X         ",
"       X+Ooo@#oo@#ooO+X        ",
"       X+Ooo##oo##ooO+X        ",
"       X+O$$oooooo$$O+X        ",
"       X++O$$$$$$$$O++X        ",
"       X+++O$%%%%$O+++X        ",
"       .X++++++++++++X.        ",
"        ..............         ",
"                               ",
"                               ",
"                               ",
"                               ",
"                               ",
"                               "
};
